<svg height="100%" style="fill-rule:nonzero;clip-rule:evenodd;stroke-linecap:round;stroke-linejoin:round;" xmlns:xlink="http://www.w3.org/1999/xlink" xmlns="http://www.w3.org/2000/svg" xml:space="preserve" width="100%" xmlns:vectornator="http://vectornator.io" version="1.1" viewBox="0 0 1024 1024">
<defs/>
<g id="レイヤー 2" vectornator:layerName="レイヤー 2">
<g opacity="1">
<g opacity="1">
<g opacity="1">
<path stroke="currentColor" stroke-width="35.5957" d="M510.429+100.088L566.824+63.1903" fill="none" stroke-linecap="round" opacity="1" stroke-linejoin="round"/>
<path stroke="currentColor" stroke-width="35.5957" d="M567.378+62.6869C567.378+62.6869+599.745+77.3294+632.731+123.239C665.717+169.15+664.542+164.972+674.704+207.759C684.867+250.546+675.714+289.605+675.714+289.605C675.714+289.605+666.899+306.207+658.713+321.138C650.528+336.068+640.637+354.109+640.637+354.109" fill="none" stroke-linecap="round" opacity="1" stroke-linejoin="round"/>
</g>
<g opacity="1">
<path stroke="currentColor" stroke-width="35.5957" d="M512.278+100.088L455.884+63.1903" fill="none" stroke-linecap="round" opacity="1" stroke-linejoin="round"/>
<path stroke="currentColor" stroke-width="35.5957" d="M455.329+62.6869C455.329+62.6869+422.962+77.3294+389.976+123.239C356.99+169.15+358.165+164.972+348.003+207.759C337.841+250.546+346.993+289.605+346.993+289.605C346.993+289.605+355.809+306.207+363.994+321.138C372.18+336.068+382.07+354.109+382.07+354.109" fill="none" stroke-linecap="round" opacity="1" stroke-linejoin="round"/>
</g>
</g>
<g opacity="1">
<g opacity="1">
<path stroke="currentColor" stroke-width="35.5957" d="M97.4925+398.23L44.7351+440.164" fill="none" stroke-linecap="round" opacity="1" stroke-linejoin="round"/>
<path stroke="currentColor" stroke-width="35.5957" d="M44.0828+440.532C44.0828+440.532+47.8062+475.861+81.0167+521.609C114.227+567.357+110.631+564.928+148.053+588.028C185.474+611.127+225.431+614.72+225.431+614.72C225.431+614.72+243.962+611.571+260.71+608.495C277.457+605.419+297.692+601.703+297.692+601.703" fill="none" stroke-linecap="round" opacity="1" stroke-linejoin="round"/>
</g>
<g opacity="1">
<path stroke="currentColor" stroke-width="35.5957" d="M96.9111+399.985L79.6162+334.85" fill="none" stroke-linecap="round" opacity="1" stroke-linejoin="round"/>
<path stroke="currentColor" stroke-width="35.5957" d="M79.3128+334.165C79.3128+334.165+103.389+308.043+157.342+291.165C211.295+274.286+206.961+274.089+250.772+277.895C294.584+281.7+328.785+302.67+328.785+302.67C328.785+302.67+341.774+316.258+353.373+328.723C364.973+341.188+378.989+356.248+378.989+356.248" fill="none" stroke-linecap="round" opacity="1" stroke-linejoin="round"/>
</g>
</g>
<g opacity="1">
<g opacity="1">
<path stroke="currentColor" stroke-width="35.5957" d="M247.3+880.729L270.065+944.16" fill="none" stroke-linecap="round" opacity="1" stroke-linejoin="round"/>
<path stroke="currentColor" stroke-width="35.5957" d="M270.204+944.896C270.204+944.896+304.857+952.719+358.848+935.963C412.84+919.207+409.384+921.832+443.28+893.814C477.176+865.795+493.412+829.11+493.412+829.11C493.412+829.11+496.384+810.55+498.85+793.702C501.316+776.854+504.297+756.498+504.297+756.498" fill="none" stroke-linecap="round" opacity="1" stroke-linejoin="round"/>
</g>
<g opacity="1">
<path stroke="currentColor" stroke-width="35.5957" d="M248.775+881.844L181.536+877.299" fill="none" stroke-linecap="round" opacity="1" stroke-linejoin="round"/>
<path stroke="currentColor" stroke-width="35.5957" d="M180.79+877.367C180.79+877.367+163.787+846.176+165.133+789.66C166.48+733.145+164.9+737.186+182.577+696.919C200.254+656.651+231.098+630.998+231.098+630.998C231.098+630.998+248.138+623.063+263.668+616.082C279.199+609.1+297.964+600.665+297.964+600.665" fill="none" stroke-linecap="round" opacity="1" stroke-linejoin="round"/>
</g>
</g>
<g opacity="1">
<g opacity="1">
<path stroke="currentColor" stroke-width="35.5957" d="M921.896+397.777L974.653+439.711" fill="none" stroke-linecap="round" opacity="1" stroke-linejoin="round"/>
<path stroke="currentColor" stroke-width="35.5957" d="M975.305+440.079C975.305+440.079+971.582+475.408+938.371+521.156C905.161+566.904+908.757+564.476+871.335+587.575C833.914+610.674+793.957+614.267+793.957+614.267C793.957+614.267+775.426+611.119+758.679+608.043C741.931+604.967+721.696+601.25+721.696+601.25" fill="none" stroke-linecap="round" opacity="1" stroke-linejoin="round"/>
</g>
<g opacity="1">
<path stroke="currentColor" stroke-width="35.5957" d="M922.477+399.533L939.772+334.397" fill="none" stroke-linecap="round" opacity="1" stroke-linejoin="round"/>
<path stroke="currentColor" stroke-width="35.5957" d="M940.075+333.712C940.075+333.712+915.999+307.591+862.046+290.712C808.093+273.834+812.427+273.636+768.616+277.442C724.804+281.248+690.603+302.217+690.603+302.217C690.603+302.217+677.615+315.805+666.015+328.27C654.415+340.735+640.399+355.796+640.399+355.796" fill="none" stroke-linecap="round" opacity="1" stroke-linejoin="round"/>
</g>
</g>
<g opacity="1">
<g opacity="1">
<path stroke="currentColor" stroke-width="35.5957" d="M772.088+880.276L749.323+943.708" fill="none" stroke-linecap="round" opacity="1" stroke-linejoin="round"/>
<path stroke="currentColor" stroke-width="35.5957" d="M749.184+944.444C749.184+944.444+714.531+952.266+660.54+935.51C606.549+918.755+610.004+921.38+576.108+893.361C542.212+865.343+525.976+828.658+525.976+828.658C525.976+828.658+523.005+810.097+520.538+793.249C518.072+776.401+515.091+756.045+515.091+756.045" fill="none" stroke-linecap="round" opacity="1" stroke-linejoin="round"/>
</g>
<g opacity="1">
<path stroke="currentColor" stroke-width="35.5957" d="M770.613+881.391L837.852+876.847" fill="none" stroke-linecap="round" opacity="1" stroke-linejoin="round"/>
<path stroke="currentColor" stroke-width="35.5957" d="M838.598+876.914C838.598+876.914+855.601+845.723+854.255+789.207C852.908+732.692+854.488+736.733+836.811+696.466C819.134+656.198+788.29+630.545+788.29+630.545C788.29+630.545+771.25+622.61+755.72+615.629C740.189+608.648+721.425+600.212+721.425+600.212" fill="none" stroke-linecap="round" opacity="1" stroke-linejoin="round"/>
</g>
</g>
</g>
</g>
<g id="レイヤー 3" vectornator:layerName="レイヤー 3">
<path d="M493.956+248.591C382.276+254.68+287.814+325.15+246.805+423.486L283.136+437.484C318.517+353.797+398.842+293.786+493.956+287.754L493.956+248.591ZM535.789+249.36L535.789+288.401C629.748+298.31+707.809+361.147+739.894+446.506L777.235+435.826C740.327+334.243+647.487+259.51+535.789+249.36ZM233.576+462.891C227.905+485.306+224.878+508.785+224.878+532.963C224.878+613.89+258.676+686.874+312.871+738.726L337.024+708.019C291.807+663.415+263.716+601.495+263.716+532.963C263.716+513.694+266.158+495.034+270.351+477.051L233.576+462.891ZM788.442+474.988L751.1+485.669C754.083+500.978+755.672+516.779+755.672+532.963C755.672+601.927+727.194+664.164+681.474+708.829L706.962+738.322C760.903+686.496+794.51+613.673+794.51+532.963C794.51+513.081+792.319+493.72+788.442+474.988ZM368.338+734.074L344.225+764.7C390.876+798.07+447.963+817.779+509.694+817.779C571.622+817.779+628.876+797.941+675.608+764.376L650.039+734.842C610.218+762.584+561.905+778.94+509.694+778.94C457.027+778.94+408.354+762.26+368.338+734.074Z" opacity="1" fill="currentColor"/>
<path d="M492.459+307.072C405.01+313.679+331.444+369.819+299.804+447.538L328.285+459.473C355.247+392.847+417.837+344.472+492.459+337.94L492.459+307.072ZM534.251+307.557L534.251+338.749C607.014+347.874+667.333+396.9+692.599+463.235L722.416+455.103C693.388+375.65+621.276+316.938+534.251+307.557ZM287.748+487.509C284.777+502.134+283.136+517.233+283.136+532.74C283.136+595.364+308.536+652.062+349.606+693.071L368.904+668.432C334.987+633.25+314.045+585.474+314.045+532.74C314.045+521.475+315.129+510.47+316.958+499.727L287.748+487.509ZM732.895+494.468L702.876+502.681C704.393+512.494+705.384+522.5+705.384+532.74C705.384+588.308+682.106+638.361+644.901+673.975L665.291+697.157C708.912+655.862+736.252+597.548+736.252+532.74C736.252+519.679+735.016+506.923+732.895+494.468ZM400.015+694.77L380.96+719.084C417.531+744.4+461.849+759.298+509.694+759.299C555.342+759.299+597.763+745.708+633.33+722.483L612.616+698.896C582.685+717.472+547.509+728.39+509.694+728.389C469.046+728.389+431.298+715.984+400.015+694.77Z" opacity="1" fill="currentColor"/>
</g>
<g id="レイヤー 4" vectornator:layerName="レイヤー 4">
<g opacity="1">
<path d="M487.647+377.686L531.741+377.686L531.741+437.489L487.647+437.489L487.647+377.686Z" opacity="1" fill="currentColor"/>
<path d="M383.955+408.445L635.433+408.445L635.433+451.73L383.955+451.73L383.955+408.445Z" opacity="1" fill="currentColor"/>
<path d="M428.783+444.726L474.513+444.726L474.513+576.699L428.783+576.699L428.783+444.726Z" opacity="1" fill="currentColor"/>
<path d="M546.547+443.183L592.277+443.183L592.277+575.156L546.547+575.156L546.547+443.183Z" opacity="1" fill="currentColor"/>
<path d="M471.33+467.925L551.731+467.925L551.731+500.187L471.33+500.187L471.33+467.925Z" opacity="1" fill="currentColor"/>
<path d="M469.151+521.482L549.553+521.482L549.553+553.744L469.151+553.744L469.151+521.482Z" opacity="1" fill="currentColor"/>
<path d="M380.414+570.318L638.974+570.318L638.974+610.266L380.414+610.266L380.414+570.318Z" opacity="1" fill="currentColor"/>
<path d="M380.414+599.404L425.437+599.404L425.437+688.32L380.414+688.32L380.414+599.404Z" opacity="1" fill="currentColor"/>
<path d="M593.951+599.404L638.974+599.404L638.974+688.32L593.951+688.32L593.951+599.404Z" opacity="1" fill="currentColor"/>
<path d="M440.989+621.242L440.989+688.684L578.259+688.684L578.259+621.242L440.989+621.242ZM475.499+646.811L543.709+646.811L543.709+663.156L475.499+663.156L475.499+646.811Z" opacity="1" fill="currentColor"/>
</g>
</g>
</svg>
